<?xml version="1.0" encoding="UTF-8" standalone="no"?>
<svg
   id="Ebene_1"
   data-name="Ebene 1"
   viewBox="0 0 1132.45 328.64832"
   version="1.1"
   sodipodi:docname="TU_Dresden_Logo_blau_HKS41.svg"
   width="1132.45"
   height="328.64832"
   inkscape:version="1.3.2 (091e20ef0f, 2023-11-25, custom)"
   xmlns:inkscape="http://www.inkscape.org/namespaces/inkscape"
   xmlns:sodipodi="http://sodipodi.sourceforge.net/DTD/sodipodi-0.dtd"
   xmlns="http://www.w3.org/2000/svg"
   xmlns:svg="http://www.w3.org/2000/svg">
  <sodipodi:namedview
     id="namedview1"
     pagecolor="#505050"
     bordercolor="#eeeeee"
     borderopacity="1"
     inkscape:showpageshadow="0"
     inkscape:pageopacity="0"
     inkscape:pagecheckerboard="0"
     inkscape:deskcolor="#d1d1d1"
     inkscape:zoom="1.5596374"
     inkscape:cx="639.57173"
     inkscape:cy="193.95534"
     inkscape:window-width="3440"
     inkscape:window-height="1390"
     inkscape:window-x="0"
     inkscape:window-y="0"
     inkscape:window-maximized="1"
     inkscape:current-layer="Ebene_1" />
  <defs
     id="defs1">
    <style
       id="style1">.cls-1{fill:#00305d;}</style>
  </defs>
  <title
     id="title1">Zeichenfläche 1</title>
  <path
     class="cls-1"
     d="m 419.14,16.297333 v 73.61 h -17.41 v -73.61 H 378.45 V 0.81733333 h 64 V 16.297333 Z m 38.93,73.61 V 0.81733333 h 58.71 V 16.297333 h -41.31 v 20.91 h 35.18 v 15.52 h -35.18 v 21.66 h 41.31 v 15.52 z m 128.69,-6.51 q -8.89,7.26 -21.66,7.26 a 32.67,32.67 0 0 1 -24,-9.77 26.25,26.25 0 0 1 -7.26,-13.4 q -1.51,-7.51 -1.5,-22.16 0.01,-14.65 1.5,-22.22 a 25.58,25.58 0 0 1 7.26,-13.3299997 32.67,32.67 0 0 1 24,-9.76999997 q 12.89,0 21.72,7.25999997 8.83,7.2599997 11.08,20.8999997 h -17.67 a 17.93,17.93 0 0 0 -5.07,-9.2 q -3.69,-3.44 -10,-3.44 -7.14,0 -11.14,4.63 a 12.66,12.66 0 0 0 -2.19,3.26 17.18,17.18 0 0 0 -1.25,4.38 66.65,66.65 0 0 0 -0.69,6.76 q -0.25,4.13 -0.25,10.77 0,6.64 0.25,10.77 a 66.58,66.58 0 0 0 0.69,6.76 17.18,17.18 0 0 0 1.25,4.38 12.64,12.64 0 0 0 2.19,3.25 q 4,4.63 11.14,4.63 6.26,0 10,-3.44 a 17.93,17.93 0 0 0 5.07,-9.2 h 17.65 q -2.23,13.7 -11.12,20.96 z m 75.24,6.51 v -37.26 h -30.17 v 37.31 h -17.4 V 0.81733333 h 17.4 V 37.247333 H 662 V 0.81733333 h 17.4 V 89.947333 Z m 92.39,0 -35.3,-54.71 v 54.71 h -17.4 V 0.81733333 h 15.54 L 752.53,55.397333 V 0.81733333 h 17.4 V 89.947333 Z m 37.81,0 V 0.81733333 h 17.4 V 89.947333 Z m 88,-6.45 q -9.26,7.2 -23.79,7.2 a 56.42,56.42 0 0 1 -18.34,-2.69 37.06,37.06 0 0 1 -14.21,-9.08 l 11.27,-11.27 a 23.23,23.23 0 0 0 9.45,5.76 39.27,39.27 0 0 0 12.08,1.75 q 15.77,0 15.77,-11 a 10.2,10.2 0 0 0 -2.38,-7.2 q -2.38,-2.57 -8.26,-3.44 l -5,-0.75 -5.76,-0.75 q -11.39,-1.63 -17.28,-7.39 -6.39,-6.38 -6.39,-17.52 0,-12.14 8.39,-19.5899997 8.39,-7.44999997 22.66,-7.44999997 a 48.75,48.75 0 0 1 16.27,2.43999997 34.18,34.18 0 0 1 12.55,7.9799997 l -11,10.84 a 19.21,19.21 0 0 0 -8.32,-4.88 37.59,37.59 0 0 0 -10,-1.25 q -6.64,0 -10.2,3.19 a 10.37,10.37 0 0 0 -3.57,8.07 8.83,8.83 0 0 0 2.76,6.32 q 2.75,2.82 8.14,3.57 l 5.38,0.75 5.13,0.75 a 44.89,44.89 0 0 1 10.08,2.5 21.45,21.45 0 0 1 6.95,4.38 q 6.88,6.51 6.88,18.9 0,12.7 -9.23,19.91 z m 78.62,-0.06 q -8.89,7.26 -21.66,7.26 a 32.67,32.67 0 0 1 -24,-9.77 26.25,26.25 0 0 1 -7.26,-13.4 q -1.5,-7.51 -1.5,-22.16 0,-14.65 1.5,-22.22 a 25.58,25.58 0 0 1 7.26,-13.3299997 32.67,32.67 0 0 1 24,-9.76999997 q 12.89,0 21.72,7.25999997 8.83,7.2599997 11.08,20.8999997 h -17.65 a 17.93,17.93 0 0 0 -5.07,-9.2 q -3.69,-3.44 -10,-3.44 -7.14,0 -11.14,4.63 a 12.67,12.67 0 0 0 -2.19,3.26 17.19,17.19 0 0 0 -1.25,4.38 66.63,66.63 0 0 0 -0.69,6.76 q -0.25,4.13 -0.25,10.77 0,6.64 0.25,10.77 a 66.56,66.56 0 0 0 0.69,6.76 17.18,17.18 0 0 0 1.25,4.38 12.65,12.65 0 0 0 2.19,3.25 q 4,4.63 11.14,4.63 6.26,0 10,-3.44 a 17.92,17.92 0 0 0 5.07,-9.2 h 17.65 q -2.26,13.7 -11.15,20.96 z m 75.24,6.51 v -37.26 h -30.17 v 37.31 h -17.4 V 0.81733333 h 17.4 V 37.247333 h 30.17 V 0.81733333 h 17.4 V 89.947333 Z m 39.68,0 V 0.81733333 h 58.71 V 16.297333 h -41.32 v 20.91 h 35.18 v 15.52 h -35.18 v 21.66 h 41.31 v 15.52 z M 441.47,191.14733 a 29.51,29.51 0 0 1 -7,10 30.61,30.61 0 0 1 -10.51,6.39 38.29,38.29 0 0 1 -25.54,0 30.61,30.61 0 0 1 -10.52,-6.39 29.46,29.46 0 0 1 -7,-10 31.68,31.68 0 0 1 -2.5,-12.77 v -58.59 h 17.4 v 58 q 0,7.64 4.19,12 4.19,4.36 11.2,4.38 7.13,0 11.33,-4.38 4.2,-4.38 4.19,-12 v -58 h 17.28 v 58.59 a 31.68,31.68 0 0 1 -2.52,12.77 z m 75.11,17.78 -35.3,-54.71 v 54.71 h -17.4 v -89.14 h 15.52 l 35.3,54.58 v -54.58 h 17.4 v 89.13 z m 36.81,0 v -89.14 h 17.4 v 89.13 z m 71.1,0 h -13 l -29.42,-89.13 h 18 l 17.9,58.09 17.9,-58.09 h 18.15 z m 40.81,0 v -89.14 h 58.71 v 15.51 H 682.7 v 20.91 h 35.18 v 15.52 H 682.7 v 21.67 h 41.31 v 15.52 z m 123.56,0 -17.4,-35.55 h -12.52 v 35.55 h -17.4 v -89.14 h 34.93 a 33,33 0 0 1 12.08,2.13 26.42,26.42 0 0 1 9.2,5.89 25.22,25.22 0 0 1 5.7,8.7 28.73,28.73 0 0 1 1.94,10.58 q 0,8.89 -4.63,14.9 a 25.09,25.09 0 0 1 -11.64,8.51 l 19.91,38.43 z m -4.38,-70.36 a 12.9,12.9 0 0 0 -9.14,-3.25 h -16.4 v 23.54 h 16.4 a 12.88,12.88 0 0 0 9.14,-3.26 12.09,12.09 0 0 0 0,-17 z m 87.75,63.91 q -9.26,7.2 -23.79,7.2 a 56.42,56.42 0 0 1 -18.34,-2.69 37.06,37.06 0 0 1 -14.21,-9.08 l 11.27,-11.27 a 23.23,23.23 0 0 0 9.45,5.76 39.29,39.29 0 0 0 12.08,1.75 q 15.77,0 15.77,-11 0,-4.63 -2.38,-7.2 -2.38,-2.57 -8.26,-3.44 l -5,-0.75 -5.76,-0.75 q -11.39,-1.63 -17.28,-7.39 -6.39,-6.38 -6.39,-17.52 0,-12.14 8.39,-19.59 8.39,-7.45 22.66,-7.45 a 48.75,48.75 0 0 1 16.27,2.44 34.18,34.18 0 0 1 12.52,7.93 l -11,10.87 a 19.21,19.21 0 0 0 -8.32,-4.88 37.6,37.6 0 0 0 -10,-1.25 q -6.64,0 -10.2,3.19 a 10.37,10.37 0 0 0 -3.57,8.07 8.83,8.83 0 0 0 2.76,6.32 q 2.75,2.82 8.14,3.57 l 5.38,0.75 5.13,0.75 a 44.89,44.89 0 0 1 10.08,2.5 21.45,21.45 0 0 1 6.95,4.38 q 6.88,6.51 6.88,18.9 0.04,12.7 -9.23,19.88 z m 26.17,6.45 v -89.14 h 17.4 v 89.13 z m 72.73,-73.63 v 73.61 h -17.4 v -73.61 h -23.28 v -15.51 h 64 v 15.51 z m 81.1,73.62 -5.26,-15.77 h -31.67 l -5.38,15.77 h -18.15 l 32.46,-89.13 h 13.64 l 32.55,89.13 z m -20.78,-62.84 -11.22,32.42 h 22.16 z m -28.4,-42.56 h 15.34 v 15.67 h -15.34 z m 41.87,0 v 15.67 h 15.35 v -15.67 z m 63.54,31.78 v 73.61 h -17.4 v -73.61 h -23.28 v -15.51 h 64 v 15.51 z m -666.88,170.44 a 26.37,26.37 0 0 1 -7.45,13.65 27,27 0 0 1 -10.33,6.38 39.65,39.65 0 0 1 -13.21,2.13 h -32.16 v -89.14 h 32.17 a 39.71,39.71 0 0 1 13.21,2.13 27,27 0 0 1 10.32,6.41 24.91,24.91 0 0 1 4.94,6.51 30,30 0 0 1 2.69,7.7 59.41,59.41 0 0 1 1.13,9 q 0.25,4.82 0.25,12.46 0.01,15.01 -1.56,22.77 z m -16.52,-38.25 a 15.24,15.24 0 0 0 -3.07,-7.7 q -4.51,-5.51 -13,-5.51 h -13.16 v 58.09 h 13.14 q 8.51,0 13,-5.51 a 15.55,15.55 0 0 0 3.07,-7.95 132.05,132.05 0 0 0 0.69,-16 122.6,122.6 0 0 0 -0.67,-15.42 z m 83.68,60.4 -17.4,-35.59 h -12.52 v 35.6 h -17.4 v -89.14 h 34.93 a 33,33 0 0 1 12.08,2.13 26.43,26.43 0 0 1 9.2,5.89 25.22,25.22 0 0 1 5.7,8.7 28.73,28.73 0 0 1 1.9,10.58 q 0,8.89 -4.63,14.9 a 25.09,25.09 0 0 1 -11.64,8.51 l 19.91,38.43 z m -4.38,-70.36 a 12.9,12.9 0 0 0 -9.13,-3.23 h -16.4 v 23.54 h 16.4 a 12.88,12.88 0 0 0 9.14,-3.26 12.09,12.09 0 0 0 0,-17 z m 39.43,70.36 v -89.13 h 58.71 v 15.54 h -41.27 v 20.91 h 35.18 v 15.52 h -35.18 v 21.66 h 41.31 v 15.51 z m 124.56,-6.45 q -9.26,7.2 -23.79,7.2 a 56.42,56.42 0 0 1 -18.33,-2.68 37.06,37.06 0 0 1 -14.21,-9.08 l 11.27,-11.27 a 23.22,23.22 0 0 0 9.45,5.76 39.27,39.27 0 0 0 12.08,1.75 q 15.77,0 15.77,-11 0,-4.63 -2.38,-7.2 -2.38,-2.57 -8.26,-3.44 l -5,-0.75 -5.76,-0.75 q -11.39,-1.63 -17.28,-7.39 -6.39,-6.38 -6.39,-17.52 0,-12.14 8.39,-19.59 8.39,-7.45 22.66,-7.45 a 48.75,48.75 0 0 1 16.27,2.44 34.17,34.17 0 0 1 12.52,7.95 l -11,10.89 a 19.21,19.21 0 0 0 -8.32,-4.88 37.59,37.59 0 0 0 -10,-1.25 q -6.64,0 -10.2,3.19 a 10.37,10.37 0 0 0 -3.57,8.07 8.83,8.83 0 0 0 2.76,6.32 q 2.75,2.82 8.14,3.57 l 5.38,0.75 5.13,0.75 a 44.89,44.89 0 0 1 10.08,2.5 21.45,21.45 0 0 1 6.95,4.38 q 6.88,6.51 6.88,18.9 0.03,12.69 -9.24,19.84 z m 89.32,-15.71 a 26.37,26.37 0 0 1 -7.44,13.65 27,27 0 0 1 -10.33,6.38 39.65,39.65 0 0 1 -13.21,2.13 h -32.17 v -89.13 h 32.17 a 39.71,39.71 0 0 1 13.21,2.13 27,27 0 0 1 10.33,6.41 24.91,24.91 0 0 1 4.94,6.51 30,30 0 0 1 2.69,7.7 59.42,59.42 0 0 1 1.13,9 q 0.25,4.82 0.25,12.46 -0.01,15.01 -1.57,22.77 z m -16.52,-38.25 a 15.24,15.24 0 0 0 -3.07,-7.7 q -4.51,-5.51 -13,-5.51 h -13.16 v 58.09 h 13.14 q 8.51,0 13,-5.51 a 15.55,15.55 0 0 0 3.07,-7.95 132.05,132.05 0 0 0 0.69,-16 122.6,122.6 0 0 0 -0.67,-15.41 z m 36.37,60.4 v -89.12 h 58.71 v 15.54 h -41.31 v 20.91 h 35.18 v 15.52 h -35.18 v 21.66 h 41.31 v 15.51 z m 128.94,0 -35.3,-54.71 v 54.73 h -17.4 v -89.14 h 15.47 l 35.35,54.54 v -54.54 h 17.4 v 89.14 z m -743.12,-0.29 h 64.57 l 98.77,-99.09 v -128.49 L 227.91,0.91733333 H 163.34 V 10.827333 h 60.42 l 93,92.999997 v 120.84 l -93,93 H 163.34 Z M 0,100.00733 v 128.5 l 99.09,99.09 h 64.25 v -9.91 h -60.42 l -93,-93 v -120.85 0 l 93,-92.999997 h 60.42 V 0.92733333 H 99.09 Z m 306.86,19.82 v 0 -12.15 L 219.92,20.727333 h -56.58 v 9.91 h 52.74 l 79.27,79.269997 h -97.12 v 103.89 h -34.89 v 9.91 h 44.75 v -103.88 z M 163.34,20.727333 H 106.76 L 19.81,107.67733 v 12.15 h 99.09 v 103.89 h 44.43 v -9.92 h -34.52 v -103.88 H 31.64 l 79.28,-79.269997 h 52.42 z M 297.23,139.63733 h -69.32 v 103.89 h -64.57 v -9.91 H 218 v -103.88 h 88.86 v 91.1 l -86.94,86.95 h -56.58 v -9.91 h 52.74 l 80.87,-80.88 0.32,-77.36 z m -133.89,103.89 H 99.09 v -103.89 H 29.72 v 77.36 l 81.19,80.88 h 52.42 v 9.91 h -56.57 l -86.95,-86.95 v -91.1 h 89.18 v 103.88 h 54.34 z"
     id="path1" />
</svg>
